<?xml version="1.0" encoding="UTF-8"?>
<!DOCTYPE svg PUBLIC "-//W3C//DTD SVG 1.1//EN" "http://www.w3.org/Graphics/SVG/1.1/DTD/svg11.dtd">
<!-- Creator: CorelDRAW -->
<svg xmlns="http://www.w3.org/2000/svg" xml:space="preserve" width="14700px" height="13200px" style="shape-rendering:geometricPrecision; text-rendering:geometricPrecision; image-rendering:optimizeQuality; fill-rule:evenodd; clip-rule:evenodd"
viewBox="0 0 4800.11 4272.59"
 xmlns:xlink="http://www.w3.org/1999/xlink">
 <defs>
  <style type="text/css">
   <![CDATA[
    .fil0 {fill:#2d3549}
   ]]>
  </style>
 </defs>
 <g id="Слой_x0020_1">
  <metadata id="CorelCorpID_0Corel-Layer"/>
  <path id="_93628640" class="fil0" d="M1711.48 603.255c309.423,0 593.399,0 920.808,0l0.00309251 -547.014c0,-31.0604 -25.1761,-56.2362 -56.2362,-56.2362l-0.00231938 0 0.000386564 -0.00502533 -2519.81 0c-31.0531,0 -56.2362,25.1831 -56.2362,56.2362l0 2004.05c0,21.8749 12.689,41.7733 32.5417,50.987 19.8408,9.20332 41.1277,4.22669 59.9561,-8.00651l174.137 -108.339c17.1534,-10.1249 27.6884,-28.542 27.6884,-48.457l0 -565.863c0,-186.207 151.5,-337.707 337.711,-337.707l506.198 0c133.179,-440.304 573.246,-439.649 573.246,-439.649z"/>
  <path id="_93628736" class="fil0" d="M1118.13 1199.66l-443.403 0.00115969c-131.171,0 -237.534,106.349 -237.534,237.523l0 605.885 -185.388 109.247c-72.4324,42.7115 -116.915,120.504 -116.915,204.628l0 423.773c0,131.181 106.324,237.534 237.534,237.534l13.1324 0 0 273.178c0,45.6834 37.061,82.7058 82.7409,82.7058l380.425 0.00347908c45.6903,0 82.7058,-37.022 82.7058,-82.7058l0 -273.178 186.575 -0.00115969m-456.527 -261.213c-106.795,0 -193.334,-86.5385 -193.334,-193.334 0,-106.767 86.5385,-193.334 193.334,-193.334 106.756,0 193.313,86.5679 193.313,193.334 0.00347908,106.784 -86.5524,193.334 -193.313,193.334zm456.647 -103.646c-42.8754,-9.89372 -74.3772,-48.1925 -74.3772,-94.0738 0,-45.8565 31.5421,-84.1859 74.4128,-94.0862m2.30238 -469.347l-200.008 -5.01219 -103.601 -0.230392c-7.58091,-0.805213 -41.7706,-3.77055 -68.256,-34.1653 -15.6388,-17.0413 -19.8474,-36.5172 -23.4973,-57.2331l-65.7773 0.986898 0 -416.723c0,-51.2773 41.699,-92.9578 92.9509,-92.9578l285.196 0 79.9793 0"/>
  <path id="_129192456" class="fil0" d="M1019.38 1593.19l98.9229 0 0 593.375 -98.9229 0c-54.6717,0 -98.9229,-44.0327 -98.9229,-98.8916l0 -395.619c0,-54.3776 44.2527,-98.863 98.9229,-98.863l0 -0.00115969 0 0.000386564zm2966.98 0l-99.0195 0 0 593.375 99.0195 0c54.6068,0 98.9229,-44.0327 98.9229,-98.8769l0 -395.619c0,-54.3919 -44.2067,-98.8769 -98.9229,-98.8769l0 -0.00115969 0 -0.000386564zm-1605.58 1580.48l70.1223 0.0189416c-22.9805,26.8059 -46.3339,60.9263 -61.3554,95.7171 -13.8224,34.4865 -25.1042,58.8327 -31.5471,104.032l-250.71 -0.00502533 0 197.805c0,109.405 -88.4737,197.801 -197.801,197.801l-197.722 0.0139163c-109.377,0 -197.805,-88.5974 -197.805,-197.801l0 -197.801c-109.328,0 -197.801,-88.5974 -197.801,-197.801l-0.0139163 -1780.18c-0.0776994,-327.628 265.763,-593.389 593.343,-593.389l1186.8 0c327.611,0 593.375,265.682 593.375,593.389l0.00347908 0 -0.00502533 0.000386564c0,334.12 0,668.239 0,1002.36 -34.5124,-1.82613 -69.0249,-5.89819 -103.537,-7.72393 -31.4207,-1.66223 -62.8429,-1.07967 -94.2644,-2.74228l0 -991.892 0 0 -1977.99 0 0 1186.8 1226.05 0.473927c-37.9154,46.804 -82.1352,114.62 -124.312,214.518l-36.0915 88.4911 -234.976 0.10012c-9.90029,0.77738 -25.388,3.33257 -40.3677,18.5864 -5.01142,5.20238 -11.9255,14.0968 -15.1239,27.3266 -0.332445,1.37655 -4.5085,8.10586 -1.20685,24.2043 10.8713,53.0045 26.5975,129.19 37.0294,177.036 15.7509,40.2603 52.9465,40.5235 55.9068,40.6692zm-273.491 -1975.97l791.192 0 0 -197.805 -791.192 0 0 197.805zm-197.801 1780.22c0,-109.502 -88.4737,-197.801 -197.722,-197.801 -109.331,0 -197.805,88.4416 -197.805,197.801 0,109.25 88.4737,197.801 197.805,197.801 109.204,-0.0460011 197.722,-88.6426 197.722,-197.801z"/>
 </g>
 <g id="Слой_x0020_3">
  <metadata id="CorelCorpID_1Corel-Layer"/>
  <path id="_128197312" class="fil0" d="M4786.45 3110.13c-11.6228,-14.1811 -28.9768,-22.4659 -47.2072,-22.4659l-231.458 0c-57.1264,-150.669 -131.539,-298.276 -216.127,-354 -292.615,-192.487 -1068.77,-192.487 -1361.4,0 -84.6548,55.7943 -158.77,203.585 -216.198,354l-231.479 0c-18.3923,0 -35.676,8.28639 -47.2072,22.4659 -11.5803,14.1305 -16.2067,32.8216 -12.4304,50.7953l34.2944 166.138c5.84562,28.3081 30.8192,48.5428 59.6128,48.5428l68.5927 0c-66.1979,76.3688 -98.2823,172.533 -98.7219,268.742 -0.436044,118.882 44.6984,226.3 127.213,302.304 0.920409,0.783179 1.8211,1.33558 2.67116,2.13963l0 232.446c0,50.3592 40.9232,91.3528 91.3528,91.3528l213.526 -0.021261c50.4308,0 91.3563,-40.9936 91.3563,-91.3528l0 -93.4259 1196.09 0.021261 0 93.4259c0,50.3592 40.9232,91.3528 91.3528,91.3528l213.505 -0.021261c50.292,0 91.3528,-40.9936 91.3528,-91.3528l0 -227.891c87.5799,-80.212 129.399,-190.556 129.952,-300.713 0.368009,-99.505 -33.1896,-199.211 -103.273,-277.145l73.1449 0c28.9312,0 53.9063,-20.21 59.6163,-48.5888l34.3404 -166.068c3.54247,-17.8608 -0.899534,-36.4132 -12.4764,-50.6824l0.00347908 0 -0.00193282 0.000773128zm-1755.88 -223.909c233.25,-153.524 927.412,-153.524 1160.56,0 45.298,29.714 103.6,149.864 156.999,297.008l-1474.43 -0.021261c53.2855,-147.055 111.563,-267.155 156.885,-296.987l-0.00231938 0 -0.00579846 0.000386564zm-273.21 781.007c0,-99.2708 80.5093,-179.645 179.713,-179.645 99.3168,0 179.717,80.3755 179.717,179.645 0,99.2743 -80.3755,179.717 -179.717,179.717 -99.2031,0 -179.713,-80.4424 -179.713,-179.717zm1529.72 179.717c-99.2031,0 -179.717,-80.4424 -179.717,-179.717 0,-99.2708 80.5132,-179.645 179.717,-179.645 99.3168,0 179.713,80.3755 179.713,179.645 0,99.2743 -80.5132,179.717 -179.713,179.717z"/>
 </g>
</svg>
