<?xml version="1.0" encoding="UTF-8"?>
<!DOCTYPE svg PUBLIC "-//W3C//DTD SVG 1.1//EN" "http://www.w3.org/Graphics/SVG/1.1/DTD/svg11.dtd">
<!-- Creator: CorelDRAW -->
<svg xmlns="http://www.w3.org/2000/svg" xml:space="preserve" width="900px" height="900px" style="shape-rendering:geometricPrecision; text-rendering:geometricPrecision; image-rendering:optimizeQuality; fill-rule:evenodd; clip-rule:evenodd"
viewBox="0 0 900.001 871.163"
 xmlns:xlink="http://www.w3.org/1999/xlink">
 <defs>
  <style type="text/css">
   <![CDATA[
    .fil0 {fill:#2d3549}
   ]]>
  </style>
 </defs>
 <g id="Слой_x0020_1">
  <metadata id="CorelCorpID_0Corel-Layer"/>
  <g id="_129965920">
   <g>
    <path id="_129966256" class="fil0" d="M429.262 515.854c6.00737,6.00737 12.928,9.00509 20.7429,9.00509 7.81483,0 14.7224,-2.99413 20.7273,-9.00509l420.276 -420.257c6.00737,-6.01095 8.99315,-12.928 8.99315,-20.7429 0,-7.81483 -3.00368,-14.7355 -8.99315,-20.7429l-45.0875 -45.0994c-6.00737,-6.01095 -12.928,-9.01225 -20.7524,-9.01225 -7.80528,0 -14.7224,3.0013 -20.7309,9.01225l-354.432 354.42 -354.417 -354.42c-6.01095,-6.01095 -12.928,-9.01225 -20.7429,-9.01225 -7.81722,0 -14.7355,3.0013 -20.7429,9.01225l-45.0815 45.0994c-6.0205,6.00737 -9.02061,12.9161 -9.02061,20.7429 0,7.82677 3.00965,14.7355 9.02061,20.7429l420.241 420.257z"/>
    <path id="_129966400" class="fil0" d="M845.921 355.317c-6.00737,-6.01095 -12.928,-9.01225 -20.7524,-9.01225 -7.80528,0 -14.7224,3.0013 -20.7309,9.01225l-354.432 354.418 -354.417 -354.428c-6.01095,-6.01095 -12.928,-9.01225 -20.7429,-9.01225 -7.81722,0 -14.7355,3.0013 -20.7429,9.01225l-45.0815 45.0971c-6.0205,6.01095 -9.02061,12.928 -9.02061,20.7405 0,7.81483 3.00965,14.7355 9.02061,20.7524l420.241 420.251c6.00737,6.01095 12.928,9.01464 20.7429,9.01464 7.81483,0 14.7224,-3.00368 20.7273,-9.01464l420.276 -420.251c6.00737,-6.01095 8.99315,-12.928 8.99315,-20.7369 0,-7.81483 -3.00368,-14.7224 -8.99315,-20.7429l-45.0875 -45.1006z"/>
   </g>
  </g>
  <g id="_129965992">
  </g>
  <g id="_129966064">
  </g>
  <g id="_129966088">
  </g>
  <g id="_129966520">
  </g>
  <g id="_129966592">
  </g>
  <g id="_129966664">
  </g>
  <g id="_129966736">
  </g>
  <g id="_129966808">
  </g>
  <g id="_129966880">
  </g>
  <g id="_129966952">
  </g>
  <g id="_129967024">
  </g>
  <g id="_129967096">
  </g>
  <g id="_129967168">
  </g>
  <g id="_129967240">
  </g>
  <g id="_129967312">
  </g>
 </g>
</svg>
