<?xml version="1.0" encoding="UTF-8"?>
<!DOCTYPE svg PUBLIC "-//W3C//DTD SVG 1.1//EN" "http://www.w3.org/Graphics/SVG/1.1/DTD/svg11.dtd">
<!-- Creator: CorelDRAW X7 -->
<svg xmlns="http://www.w3.org/2000/svg" xml:space="preserve" width="310px" height="277px" version="1.1" style="shape-rendering:geometricPrecision; text-rendering:geometricPrecision; image-rendering:optimizeQuality; fill-rule:evenodd; clip-rule:evenodd"
viewBox="0 0 2301 2059"
 xmlns:xlink="http://www.w3.org/1999/xlink">
 <defs>
  <style type="text/css">
   <![CDATA[
    .fil0 {fill:red}
    .fil1 {fill:#2d3549;fill-rule:nonzero}
   ]]>
  </style>
 </defs>
 <g id="Слой_x0020_1">
  <metadata id="CorelCorpID_0Corel-Layer"/>
  <g id="_815383808">
   <path class="fil0" d="M221 2059l1854 0c0,0 390,-39 146,-454 -136,-231 -593,-1084 -860,-1485 -110,-166 -292,-154 -410,-1 -182,237 -922,1598 -922,1598 -62,104 -36,342 192,342zm62 -260l1738 0 -869 -1495 -869 1495z"/>
   <polygon class="fil1" points="894,1142 1407,1142 1407,1721 1255,1721 1255,1266 1046,1266 1046,1721 894,1721 "/>
  </g>
 </g>
</svg>
