<?xml version="1.0" encoding="UTF-8"?>
<!DOCTYPE svg PUBLIC "-//W3C//DTD SVG 1.1//EN" "http://www.w3.org/Graphics/SVG/1.1/DTD/svg11.dtd">
<!-- Creator: CorelDRAW -->
<svg xmlns="http://www.w3.org/2000/svg" xml:space="preserve" width="5400px" height="2700px" style="shape-rendering:geometricPrecision; text-rendering:geometricPrecision; image-rendering:optimizeQuality; fill-rule:evenodd; clip-rule:evenodd"
viewBox="0 0 5399.95 2832.55"
 xmlns:xlink="http://www.w3.org/1999/xlink">
 <defs>
  <style type="text/css">
   <![CDATA[
    .str1 {stroke:#fff;stroke-width:10.4416}
    .str0 {stroke:#fff;stroke-width:10.4416;stroke-linecap:round;stroke-linejoin:round}
    .fil1 {fill:none}
    .fil0 {fill:#fff}
   ]]>
  </style>
 </defs>
 <g id="Слой_x0020_1">
  <metadata id="CorelCorpID_0Corel-Layer"/>
  <g id="_117897400">
   <path id="_117898096" class="fil0 str0" d="M2507.87 217.338l-2321.84 0 -120.305 348.88 233.275 87.1587 84.0184 -210.051 1911.45 0 48.0258 222.055 -1370.2 0 -303.922 497.324 -322.6 0 0 468.962 250.911 0c0,0 485.502,71.9638 839.589,468.06 315.064,0 687.163,3.00117 687.163,3.00117 0,0 279.067,-654.157 1014.24,-654.157 531.593,0 722.326,2.3838 722.326,2.3838l330.93 -1229.68 108.024 0 -75.0185 -216.053 -1370.2 0 -113.877 645.212 -112.014 0 -119.986 -433.092 0.00356857 -0.00356857 -0.00237905 0.00118952zm1608.05 0.931397l-945.23 0 111.025 693.168 291.072 108.024 322.515 0 220.614 -801.189 0.00356857 -0.00356857z"/>
   <rect id="_117899104" class="fil0 str1" x="1325.52" y="2178.29" width="905.069" height="138.897"/>
   <polygon id="_117899176" class="fil0 str0" points="4406.63,2028.94 4077.83,1600.82 3644.8,1600.82 3969.03,2318.68 4042.21,1958.74 "/>
   <path id="_117940288" class="fil0 str0" d="M5349.21 2687.87l-1377.33 0 111.025 -585.14c0,0 689.194,-5.34215 1302.31,363.09 34.6116,113.409 -36.0069,222.055 -36.0069,222.055l-0.00356857 -0.00356857 0.00237905 -0.00237905z"/>
   <path id="_117941224" class="fil0 str1" d="M3113.66 1594.16c-340.44,0 -616.592,276.148 -616.592,616.612 0,340.44 276.148,616.558 616.592,616.558 340.464,0 616.592,-276.123 616.592,-616.558 0,-340.464 -276.123,-616.612 -616.592,-616.612zm0 239.798c-208.063,0 -376.789,168.727 -376.789,376.803 0,208.052 168.727,376.803 376.789,376.803 208.063,0 376.818,-168.752 376.818,-376.803 0,-208.077 -168.752,-376.803 -376.818,-376.803z"/>
   <path id="_118191656" class="fil1 str1" d="M3113.66 1833.96c-208.063,0 -376.789,168.727 -376.789,376.803 0,208.052 168.727,376.803 376.789,376.803 208.063,0 376.818,-168.752 376.818,-376.803 0,-208.077 -168.752,-376.803 -376.818,-376.803z"/>
   <path id="_118195440" class="fil0 str1" d="M484.788 1837.62c-264.789,0 -479.567,214.779 -479.567,479.598 0,264.775 214.779,479.541 479.567,479.541 264.803,0 479.567,-214.765 479.567,-479.541 0,-264.818 -214.765,-479.598 -479.567,-479.598zm0 186.512c-161.832,0 -293.056,131.223 -293.056,293.07 0,161.82 131.223,293.07 293.056,293.07 161.832,0 293.084,-131.253 293.084,-293.07 0,-161.847 -131.253,-293.07 -293.084,-293.07z"/>
  </g>
 </g>
</svg>
