<?xml version="1.0" encoding="UTF-8"?>
<!DOCTYPE svg PUBLIC "-//W3C//DTD SVG 1.1//EN" "http://www.w3.org/Graphics/SVG/1.1/DTD/svg11.dtd">
<!-- Creator: CorelDRAW -->
<svg xmlns="http://www.w3.org/2000/svg" xml:space="preserve" width="600px" height="600px" style="shape-rendering:geometricPrecision; text-rendering:geometricPrecision; image-rendering:optimizeQuality; fill-rule:evenodd; clip-rule:evenodd"
viewBox="0 0 1122.49 1025.36"
 xmlns:xlink="http://www.w3.org/1999/xlink">
 <defs>
  <style type="text/css">
   <![CDATA[
    .fil0 {fill:#fd7a68}
   ]]>
  </style>
 </defs>
 <g id="Слой_x0020_1">
  <metadata id="CorelCorpID_0Corel-Layer"/>
  <path class="fil0" d="M97.4808 823.734c6.00035,-55.4908 130.304,-259.056 332.314,-445.782 3.87191,-3.57885 -231.756,-147.448 -385.468,-219.621 -14.0695,-6.60386 -51.3333,-20.0103 -43.1747,-61.5011 20.5418,-112.199 170.809,-102.664 227.603,-87.4322 64.0567,17.1765 339.906,247.345 342.628,244.683 129.807,-127.08 334.947,-233.482 551.103,-254.081 -325.795,256.743 -438.619,359.196 -438.619,359.196 0,0 308.419,299.575 342.219,665.914 -208.246,-299.831 -464.118,-534.175 -464.118,-534.175 0,0 -179.022,195.349 -307.677,498.451 -39.7349,74.3089 -110.992,15.6292 -129.864,-16.342 -7.99964,-13.5529 -37.8375,-48.5914 -26.9469,-149.311z"/>
 </g>
</svg>
