<?xml version="1.0" encoding="UTF-8"?>
<!DOCTYPE svg PUBLIC "-//W3C//DTD SVG 1.1//EN" "http://www.w3.org/Graphics/SVG/1.1/DTD/svg11.dtd">
<!-- Creator: CorelDRAW -->
<svg xmlns="http://www.w3.org/2000/svg" xml:space="preserve" width="2400px" height="1200px" style="shape-rendering:geometricPrecision; text-rendering:geometricPrecision; image-rendering:optimizeQuality; fill-rule:evenodd; clip-rule:evenodd"
viewBox="0 0 2400 1207.26"
 xmlns:xlink="http://www.w3.org/1999/xlink">
 <defs>
  <style type="text/css">
   <![CDATA[
    .fil0 {fill:#fff}
   ]]>
  </style>
 </defs>
 <g id="Слой_x0020_1">
  <metadata id="CorelCorpID_0Corel-Layer"/>
  <g id="_121162152">
   <path id="_120864272" class="fil0" d="M1840.6 743.947c128.037,0 231.705,103.67 231.705,231.656 0,127.986 -103.67,231.656 -231.705,231.656 -128.135,0 -231.754,-103.67 -231.754,-231.656 0,-127.986 103.768,-231.656 231.754,-231.656zm0 336.409c57.7417,0 104.654,-46.9611 104.654,-104.703 0,-57.7909 -46.912,-104.703 -104.654,-104.703 -57.84,0 -104.703,46.912 -104.703,104.703 0,57.7406 46.8629,104.703 104.703,104.703zm-1248.41 -336.409c127.987,0 231.705,103.67 231.705,231.656 0,127.986 -103.719,231.656 -231.705,231.656 -128.086,0 -231.803,-103.67 -231.803,-231.656 0,-127.986 103.817,-231.656 231.803,-231.656zm0 336.409c57.6926,0 104.605,-46.9611 104.605,-104.703 0,-57.7909 -46.912,-104.703 -104.605,-104.703 -57.7909,0 -104.801,46.912 -104.801,104.703 0,57.7406 47.0103,104.703 104.801,104.703zm-477.243 -848.455c23.4811,0 44.8937,7.088 62.8617,18.952l0.394286 -180.215c0,0 -8.86057,-70.5897 63.4514,-70.5897 72.4114,-0.0491429 1096.85,-0.0491429 1162.02,-0.0491429 65.0766,0 72.3623,61.6309 72.3623,61.6309l114.499 333.357c0,0 497.377,1.82171 615.666,1.82171 118.437,0 115.976,66.9474 115.976,66.9474l0 298.013c0,1.13257 -0.196571,2.41257 -0.196571,3.44571l78.0206 -0.00228571 0 250.362 -264.293 0c3.10171,-17.672 5.12,-35.8366 5.12,-54.5909 0,-162.15 -131.482,-293.631 -293.779,-293.631 -162.051,0 -293.483,131.482 -293.483,293.631 0,18.7063 1.92,36.9189 5.12,54.5909l-682.221 0c3.24914,-17.672 5.12,-35.8857 5.12,-54.5909 0,-162.15 -131.433,-293.631 -293.631,-293.631 -162.198,0 -293.631,131.482 -293.631,293.631 0,19.1977 1.92,37.8549 5.26743,56.0194l-123.262 2.21486 -127.201 0 0 -155.11 127.2 -0.00114286 0 2.904 0.294857 -97.9589c-17.7703,11.5189 -39.1349,18.312 -62.024,18.312 -63.2549,0 -114.598,-51.3429 -114.598,-114.647l0 -326.169c0.294857,-63.4034 51.6377,-114.647 114.942,-114.647zm809.222 166.629l507.763 0 -84.6194 -317.408 -423.242 0.00114286 0.0982857 317.407 0 0zm-634.913 7.04l0 0 557.334 0 0 -324.447 -557.334 0 0 324.447 0 0z"/>
  </g>
 </g>
</svg>
