<?xml version="1.0" encoding="UTF-8"?>
<!DOCTYPE svg PUBLIC "-//W3C//DTD SVG 1.1//EN" "http://www.w3.org/Graphics/SVG/1.1/DTD/svg11.dtd">
<!-- Creator: CorelDRAW -->
<svg class="lawn_mower" xmlns="http://www.w3.org/2000/svg" xml:space="preserve" width="2400px" height="2100px" style="shape-rendering:geometricPrecision; text-rendering:geometricPrecision; image-rendering:optimizeQuality; fill-rule:evenodd; clip-rule:evenodd"
viewBox="0 0 2400 1973.79"
 xmlns:xlink="http://www.w3.org/1999/xlink">
 <defs>
  <style type="text/css">
   <![CDATA[
    .fil0 {fill:#2d3549}
   ]]>
  </style>
 </defs>
 <g id="Слой_x0020_1">
  <metadata id="CorelCorpID_0Corel-Layer"/>
  <g id="_114924168">
   <g>
    <path id="_114924504" class="fil0" d="M2348.52 1250.12c-0.63886,-52.1179 -42.7407,-100.188 -94.2152,-107.451l-385.129 -57.9488 0 -121.588c0,-53.7682 -43.4939,-97.5764 -97.1489,-98.0827l-601.266 -51.3876 -1.78058 -0.0788574c-54.0905,0 -98.0941,44.0002 -98.0941,98.0907l0 52.9408 -357.925 -53.8505 -104.768 -678.977c-7.68231,-49.7762 -50.1453,-97.2072 -98.7764,-110.33l-443.556 -119.643c-27.8664,-7.52917 -56.5374,8.97261 -64.0505,36.8356 -7.51317,27.863 8.97603,56.5328 36.8356,64.0505l443.561 119.651c8.80346,2.37258 21.3292,16.3681 22.7212,25.3761l105.69 684.972c-14.4983,15.4629 -23.2858,36.5339 -23.4709,60.5328l-51.4162 730.066 -0.0514288 1.47086c0,54.0859 44.0036,98.0907 98.0941,98.0907l42.311 0.00114286 -6.15317 -25.7567c-6.7806,-28.3681 -10.216,-57.3534 -10.216,-86.1489 0,-204.424 166.306,-370.729 370.729,-370.729 204.424,0 370.729,166.306 370.729,370.729 0,28.8001 -3.43544,57.7808 -10.216,86.1489l-6.15317 25.7567 277.643 0 -2.04344 -22.7681c-0.458287,-5.13373 -0.776003,-9.63089 -0.964575,-13.8275 -0.238858,-4.83888 -0.361144,-9.59204 -0.361144,-14.1292 0,-170.682 138.859,-309.545 309.545,-309.545 170.678,0 309.545,138.859 309.545,309.545 0,5.85145 -0.211429,12.0195 -0.674288,19.4161l-1.91772 30.8275 29.3293 -9.67889c45.9727,-15.1761 95.0906,-46.2436 95.0906,-87.9249l0 -1.13372 -51.4756 -473.522z"/>
    <path id="_114924648" class="fil0" d="M1030.45 1467.4c-134.298,0 -243.556,109.262 -243.556,243.556 0,134.294 109.262,243.556 243.556,243.556 134.294,0 243.556,-109.262 243.556,-243.556 0,-134.294 -109.262,-243.556 -243.556,-243.556zm0 361.725c-65.1568,0 -118.165,-53.0116 -118.165,-118.165 0,-65.1534 53.0116,-118.165 118.165,-118.165 65.1534,0 118.165,53.0116 118.165,118.165 0,65.1534 -53.0116,118.165 -118.165,118.165z"/>
    <path id="_114924744" class="fil0" d="M1968.62 1570.5c-111.188,0 -201.643,90.4586 -201.643,201.638 0,111.188 90.4586,201.646 201.643,201.646 111.184,0 201.643,-90.4632 201.643,-201.646 0,-111.183 -90.4552,-201.638 -201.643,-201.638zm0 298.792c-53.5682,0 -97.1489,-43.5887 -97.1489,-97.1524 0,-53.5648 43.5807,-97.1455 97.1489,-97.1455 53.5682,0 97.1489,43.5807 97.1489,97.1455 0,53.5682 -43.5807,97.1524 -97.1489,97.1524z"/>
   </g>
  </g>
 </g>
</svg>
