<?xml version="1.0" encoding="UTF-8"?>
<!DOCTYPE svg PUBLIC "-//W3C//DTD SVG 1.1//EN" "http://www.w3.org/Graphics/SVG/1.1/DTD/svg11.dtd">
<!-- Creator: CorelDRAW -->
<svg xmlns="http://www.w3.org/2000/svg" xml:space="preserve" width="1800px" height="900px" style="shape-rendering:geometricPrecision; text-rendering:geometricPrecision; image-rendering:optimizeQuality; fill-rule:evenodd; clip-rule:evenodd"
viewBox="0 0 1800 927.925"
 xmlns:xlink="http://www.w3.org/1999/xlink">
 <defs>
  <style type="text/css">
   <![CDATA[
    .str1 {stroke:#2d3549;stroke-width:23.7644}
    .str0 {stroke:#2d3549;stroke-width:47.524}
    .fil1 {fill:none}
    .fil0 {fill:#2d3549}
   ]]>
  </style>
 </defs>
 <g id="Слой_x0020_1">
  <metadata id="CorelCorpID_0Corel-Layer"/>
  <g id="_140808768">
   <path id="_33073480" class="fil0" d="M1258.07 697.985l-616.744 0c0,0 -40.7775,-111.873 -167.051,-111.873 -126.273,0 -170.328,112.061 -170.709,112.061 -92.1289,0.129764 -186.214,0.274726 -278.354,0.41618 -16.2322,0 -25.214,-19.1396 -25.214,-33.1237 0,-213.794 0,-427.595 0,-641.396 0,-10.6325 4.94272,-24.0706 24.059,-24.0706l1038.86 0c22.8841,0 35.1193,23.3353 35.1193,44.2823 0,3.59949 14.3068,-9.94507 24.64,-18.2745 40.7892,-7.30887 258.441,90.608 285.958,123.316 54.2741,60.0819 244.873,269.384 345.076,382.078 29.3243,32.9706 46.2907,51.4579 46.2907,73.8182 0,51.8027 -0.675708,92.4703 -0.675708,92.4703l-135.982 0c-35.8815,-91.1072 -100.612,-140.745 -196.277,-140.745 -118.906,0 -167.573,65.9517 -209.004,141.044l0.00818332 -0.00350714 -0.00233809 0zm527.706 -56.7817l0 -40.4197c0,0 -16.2439,-41.618 -46.196,-59.6692 -29.9521,-18.0466 -57.0997,-0.640637 -57.0997,-0.640637 0,0 -20.5658,15.0059 -13.4732,30.1532 7.0926,15.1473 116.769,70.5729 116.769,70.5729l0 0.00350714zm-204.277 -251.333c0,0 -166.871,-238.91 -381.791,-231.448 -15.4817,1.83072 -22.9425,9.08816 -21.8857,22.6093 27.9215,168.49 126.18,207.911 126.18,207.911l277.497 0.927053zm-1568.43 151.888l0 123.707 28.2313 -84.5687c0,0 15.3987,-44.9112 -28.2313,-39.135l0 -0.00350714zm1173.46 -141.149l0 68.0069c0,0 -34.6435,1.27309 -35.2888,-32.0786 -0.640637,-33.3517 35.2888,-35.9294 35.2888,-35.9294l0 0.00116905zm-126.002 110.069l0 19.426 -1046.46 0 0 -19.6259 1046.46 0.199907z"/>
   <path id="_33073456" class="fil0" d="M1554.72 378.096l-52.8362 -0.0584523 -20.4945 -83.7282c24.4518,27.9332 48.8918,55.8652 73.3307,83.7866z"/>
   <circle id="_125723800" class="fil1 str0" cx="473.872" cy="768.366" r="135.797"/>
   <circle id="_140640904" class="fil0 str1" cx="473.864" cy="768.366" r="40.2385"/>
   <g>
    <circle id="_140809656" class="fil0" cx="476.461" cy="838.331" r="11.0019"/>
    <circle id="_125838144" class="fil0" cx="476.461" cy="700.376" r="11.0019"/>
   </g>
   <g>
    <circle id="_125837328" class="fil0" transform="matrix(-2.64845E-014 -1 -1 2.64845E-014 407.506 769.303)" r="11.0019"/>
    <circle id="_125838000" class="fil0" transform="matrix(-2.64845E-014 -1 -1 2.64845E-014 545.431 769.303)" r="11.0019"/>
   </g>
   <g>
    <circle id="_140809872" class="fil0" transform="matrix(-0.707107 -0.707107 -0.707107 0.707107 427.705 818.06)" r="11.0019"/>
    <circle id="_140641912" class="fil0" transform="matrix(-0.707107 -0.707107 -0.707107 0.707107 525.242 720.546)" r="11.0019"/>
   </g>
   <g>
    <circle id="_140809272" class="fil0" transform="matrix(-0.707107 0.707107 0.707107 0.707107 525.242 818.06)" r="11.0019"/>
    <circle id="_139916368" class="fil0" transform="matrix(-0.707107 0.707107 0.707107 0.707107 427.715 720.546)" r="11.0019"/>
   </g>
   <circle id="_140641360" class="fil1 str0" cx="1463.05" cy="768.366" r="135.797"/>
   <circle id="_140640736" class="fil0 str1" cx="1463.04" cy="768.366" r="40.2385"/>
   <g>
    <circle id="_140640592" class="fil0" cx="1465.65" cy="838.331" r="11.0019"/>
    <circle id="_140640664" class="fil0" cx="1465.65" cy="700.376" r="11.0019"/>
   </g>
   <g>
    <circle id="_139917424" class="fil0" transform="matrix(-2.64845E-014 -1 -1 2.64845E-014 1396.68 769.303)" r="11.0019"/>
    <circle id="_139916344" class="fil0" transform="matrix(-2.64845E-014 -1 -1 2.64845E-014 1534.62 769.303)" r="11.0019"/>
   </g>
   <g>
    <circle id="_139917976" class="fil0" transform="matrix(-0.707107 -0.707107 -0.707107 0.707107 1416.89 818.06)" r="11.0019"/>
    <circle id="_139916776" class="fil0" transform="matrix(-0.707107 -0.707107 -0.707107 0.707107 1514.43 720.546)" r="11.0019"/>
   </g>
   <g>
    <circle id="_139917784" class="fil0" transform="matrix(-0.707107 0.707107 0.707107 0.707107 1514.43 818.06)" r="11.0019"/>
    <circle id="_140641960" class="fil0" transform="matrix(-0.707107 0.707107 0.707107 0.707107 1416.89 720.546)" r="11.0019"/>
   </g>
   <path id="_140809824" class="fil0" d="M1285.03 754.123l-154.564 0c0,0 -18.1296,1.29647 -23.3119,-40.145 33.6463,0 159.291,0 159.291,0 36.7501,-81.5631 101.976,-143.574 197.573,-143.574 94.8949,0 153.231,44.6119 190.399,142.076 48.2979,0 134.211,0.118074 134.211,0.118074l-25.8195 29.336 -126.238 0.286416c-11.5946,-72.2154 -68.7457,-151.476 -172.065,-151.476 -100.623,0 -174.906,80.5063 -179.48,163.378l0.00350714 0 0.00116905 0z"/>
  </g>
 </g>
</svg>
