<?xml version="1.0" encoding="UTF-8"?>
<!DOCTYPE svg PUBLIC "-//W3C//DTD SVG 1.1//EN" "http://www.w3.org/Graphics/SVG/1.1/DTD/svg11.dtd">
<!-- Creator: CorelDRAW X7 -->
<svg xmlns="http://www.w3.org/2000/svg" xml:space="preserve" width="29424px" height="26429px" version="1.1" style="shape-rendering:geometricPrecision; text-rendering:geometricPrecision; image-rendering:optimizeQuality; fill-rule:evenodd; clip-rule:evenodd"
viewBox="0 0 29526 26522"
 xmlns:xlink="http://www.w3.org/1999/xlink">
 <defs>
  <style type="text/css">
   <![CDATA[
    .str0 {stroke:red;stroke-width:3512.23}
    .fil2 {fill:none}
    .fil1 {fill:red}
    .fil0 {fill:#2d3549;fill-rule:nonzero}
   ]]>
  </style>
 </defs>
 <g id="Слой_x0020_1">
  <metadata id="CorelCorpID_0Corel-Layer"/>
  <polygon class="fil0" points="9777,14735 11553,14735 11553,20528 13789,20528 13789,14735 15565,14735 15565,20528 18012,20528 18012,14735 19788,14735 19788,22081 9777,22081 "/>
  <path class="fil1" d="M2890 26522l23822 0c0,0 4893,-677 1776,-5994 -1776,-2918 -7564,-13816 -11153,-18927 -1317,-2242 -3546,-2024 -5111,0 -2447,3093 -11817,20480 -11817,20480 -888,1317 -435,4441 2483,4441l0 0 0 0zm640 -3341l22293 0 -11146 -19140 -11147 19140 0 0 0 0 0 0z"/>
  <line class="fil2 str0" x1="11237" y1="24616" x2="19792" y2= "9636" />
 </g>
</svg>
