<?xml version="1.0" encoding="UTF-8"?>
<!DOCTYPE svg PUBLIC "-//W3C//DTD SVG 1.1//EN" "http://www.w3.org/Graphics/SVG/1.1/DTD/svg11.dtd">
<!-- Creator: CorelDRAW X7 -->
<svg xmlns="http://www.w3.org/2000/svg" xml:space="preserve" width="310px" height="277px" version="1.1" style="shape-rendering:geometricPrecision; text-rendering:geometricPrecision; image-rendering:optimizeQuality; fill-rule:evenodd; clip-rule:evenodd"
viewBox="0 0 133 119"
 xmlns:xlink="http://www.w3.org/1999/xlink">
 <defs>
  <style type="text/css">
   <![CDATA[
    .fil0 {fill:red}
    .fil1 {fill:#fff;fill-rule:nonzero}
   ]]>
  </style>
 </defs>
 <g id="Слой_x0020_1">
  <metadata id="CorelCorpID_0Corel-Layer"/>
  <g id="_815389888">
   <path class="fil0" d="M13 119l107 0c0,0 22,-3 8,-27 -8,-13 -34,-62 -50,-85 -6,-10 -16,-9 -23,0 -11,14 -53,92 -53,92 -4,6 -2,20 11,20zm3 -15l100 0 -50 -86 -50 86z"/>
   <polygon class="fil1" points="44,66 52,66 52,92 62,92 62,66 70,66 70,92 81,92 81,66 89,66 89,99 44,99 "/>
  </g>
 </g>
</svg>
