<?xml version="1.0" encoding="UTF-8"?>
<!DOCTYPE svg PUBLIC "-//W3C//DTD SVG 1.1//EN" "http://www.w3.org/Graphics/SVG/1.1/DTD/svg11.dtd">
<!-- Creator: CorelDRAW -->
<svg xmlns="http://www.w3.org/2000/svg" xml:space="preserve" width="167.473mm" height="185.271mm" style="shape-rendering:geometricPrecision; text-rendering:geometricPrecision; image-rendering:optimizeQuality; fill-rule:evenodd; clip-rule:evenodd"
viewBox="0 0 148.666 164.466"
 xmlns:xlink="http://www.w3.org/1999/xlink">
 <defs>
  <style type="text/css">
   <![CDATA[
    .fil0 {fill:#000}
    .fil1 {fill:#000}
   ]]>
  </style>
 </defs>
 <g id="Слой_x0020_1">
  <metadata id="CorelCorpID_0Corel-Layer"/>
  <g id="_142294312">
   <g>
    <path id="_142280968" class="fil0" d="M24.6414 82.0309c0,-3.40044 -2.75979,-6.16049 -6.16049,-6.16049l-12.3204 0c-3.40071,0 -6.16049,2.76005 -6.16049,6.16049 0,3.40071 2.75979,6.16049 6.16049,6.16049l12.3206 0c3.40044,0 6.16023,-2.75979 6.16023,-6.16049zm6.16049 34.9088c-1.70022,0 -3.2403,0.690013 -4.35757,1.80284l-8.21367 8.21393c-1.11309,1.11709 -1.80284,2.65708 -1.80284,4.35739 0,3.40071 2.75579,6.16049 6.16049,6.16049 1.70022,0 3.2403,-0.690013 4.35339,-1.80683l8.21393 -8.21393c1.11709,-1.11283 1.8071,-2.65291 1.8071,-4.35313 -0.000443852,-3.40106 -2.75615,-6.16076 -6.16085,-6.16076zm-4.35765 -71.6205c1.11709,1.11283 2.65708,1.80284 4.35757,1.80284 3.40044,0 6.16049,-2.75979 6.16049,-6.16049 0,-1.70022 -0.690013,-3.2403 -1.80284,-4.35739l-8.21393 -8.21367c-1.11709,-1.11309 -2.65708,-1.80284 -4.35739,-1.80284 -3.40044,0 -6.16049,2.75979 -6.16049,6.16049 0,1.70022 0.690013,3.2403 1.80284,4.35339l8.21375 8.21766zm45.4586 0.74798c0,-1.97195 -0.0320461,-6.28806 -0.0320461,-7.15881 -23.7789,0 -43.1225,19.3436 -43.1225,43.1225 0,23.7789 19.3436,43.1225 43.1225,43.1225l0.000266311 -6.26533m-0.000266311 -6.0553c-16.9861,0 -30.8018,-13.8154 -30.8018,-30.8018 0,-16.9861 13.8156,-30.8018 30.8018,-30.8018"/>
   </g>
   <path id="_119168456" class="fil1" d="M71.9348 25.4341l-8.87705e-005 11.3275 0 36.7617 0 17.3243 0 36.5712 8.87705e-005 11.3459 0 20.7892c0,2.76041 2.14177,4.91167 4.90785,4.91167 2.76609,0 4.99733,-2.15117 4.99733,-4.91167l0 -20.4465 15.1695 8.56715c0.69454,0.399733 1.517,0.552152 2.32073,0.552152 1.96236,0 3.40941,-0.799467 4.37257,-2.51291 1.35544,-2.39876 0.479804,-5.40701 -1.9628,-6.77745l-19.9 -11.156 8.87705e-005 -37.1234 31.5893 18.2952 -0.177097 23.3782c-0.0229916,2.77949 2.14177,5.08309 4.90785,5.08309 2.76609,0 4.86586,-2.13218 4.90768,-4.89258l0.266578 -17.9524 17.8479 10.4516c0.689125,0.399733 1.60657,0.533155 2.58899,0.533155 1.87359,0 3.24785,-0.78047 4.19361,-2.32268 1.46471,-2.37976 0.529693,-5.44491 -1.785,-6.77754l-17.7584 -10.2613 14.9924 -8.92862c2.4103,-1.16121 3.15623,-4.39778 1.78553,-6.77727 -1.39538,-2.43684 -4.4071,-2.95073 -6.69338,-1.61829l-19.9892 11.7081 -31.7686 -18.4856 31.7683 -18.2952 19.9892 11.6891c0.624323,0.456813 1.42752,0.723391 2.32073,0.723391 1.6941,0 3.21163,-0.799467 4.37257,-2.32268 1.33857,-2.41775 0.624767,-5.61606 -1.78553,-6.77727l-14.9924 -8.92862 17.7584 -10.2611c2.31469,-1.33262 3.11061,-4.32161 1.78553,-6.77745 -1.26569,-2.36067 -4.39751,-3.17923 -6.78286,-1.78952l-17.8479 10.3564 -0.266578 -17.8573c-0.0418109,-2.76041 -2.14177,-4.98801 -4.90785,-4.98801 -2.76564,0 -4.92854,2.39876 -4.90768,4.98801l0.177097 23.5685 -31.5893 18.2952 8.87705e-005 -37.1233 19.9 -11.3465c2.32312,-1.31363 3.33537,-4.37869 1.9628,-6.77727 -1.3937,-2.43684 -4.25468,-3.16041 -6.69338,-1.78952l-15.1695 8.56697 0 -20.2562c0,-2.76041 -2.23125,-4.98775 -4.99733,-4.98775 -2.76609,0 -4.90785,2.22725 -4.90785,4.98775l0 20.4463z"/>
  </g>
 </g>
</svg>
