<?xml version="1.0" encoding="UTF-8"?>
<!DOCTYPE svg PUBLIC "-//W3C//DTD SVG 1.1//EN" "http://www.w3.org/Graphics/SVG/1.1/DTD/svg11.dtd">
<!-- Creator: CorelDRAW -->
<svg xmlns="http://www.w3.org/2000/svg" xml:space="preserve" width="1800px" height="1200px" style="shape-rendering:geometricPrecision; text-rendering:geometricPrecision; image-rendering:optimizeQuality; fill-rule:evenodd; clip-rule:evenodd"
viewBox="0 0 2300.18 1307.68"
 xmlns:xlink="http://www.w3.org/1999/xlink">
 <defs>
  <style type="text/css">
   <![CDATA[
    .fil0 {fill:#2d3549}
   ]]>
  </style>
 </defs>
 <g id="Слой_x0020_1">
  <metadata id="CorelCorpID_0Corel-Layer"/>
  <g id="_128783936">
   <path id="_128588920" class="fil0" d="M1292.48 858.269l-285.419 0c0,0 -80.8027,-129.627 -211.441,-136.734 0,-59.0384 0.111793,-469.436 0.111793,-469.436 0,0 -0.423636,-29.5839 47.0118,-29.5839 47.4296,0 364.139,0 386.762,0 22.6292,0 89.7226,21.7466 47.2119,76.1192 7.90787,56.3495 61.2919,510.099 61.2919,510.099l-45.5291 49.536zm-48.1651 -559.123l-293.821 -0.511894c0,0 -45.4761,-1.95932 -45.4761,35.5854 0,37.5447 0,394.417 0,394.417 0,0 49.3183,27.0951 61.7508,50.8363 -0.564848,-2.61831 -30.1135,-91.3524 -30.1135,-91.3524l0 -77.1076 26.6714 0 0 74.1422c0,0 30.0252,82.3089 34.8911,93.9119 11.0557,0 217.19,0 217.19,0l0 -103.797 26.2125 0.111793 -75.0601 -67.717 -76.1898 0.0176515 -0.035303 -14.6449 82.5973 0.164747 94.3002 82.509 26.6008 -0.0176515 -49.5183 -376.548z"/>
   <path id="_111966800" class="fil0" d="M771.196 721.352l0 -79.673 -201.833 -433.044 -106.015 204.045c-16.4571,31.655 65.134,185.135 54.6079,270.721 -11.0028,89.5755 69.747,63.9632 135.981,38.4803 38.1331,0.129444 95.1416,-0.364798 117.253,-0.529545l0.00588383 0z"/>
   <path id="_128579232" class="fil0" d="M309.597 682.748c-18.8165,36.9975 -116.776,59.4208 -101.508,-39.104 15.2685,-98.5248 227.039,-604.964 231.064,-617.597 4.02454,-12.6326 37.2329,-51.4953 107.751,-0.364798 36.3562,26.3596 73.8303,55.5081 40.7867,108.851 -33.0436,53.3428 -259.277,511.211 -278.094,548.209l0 0.00588383z"/>
   <path id="_115261928" class="fil0" d="M300.754 733.696l-157.234 0.753131c0,0 -118.318,-92.8704 -135.434,-111.399 -11.0734,7.70782 -9.0611,150.097 -4.02454,180.887 5.03656,30.7901 32.8083,85.0155 75.4072,107.898 42.599,22.8822 110.245,3.57149 110.245,3.57149l111.104 -107.751 -0.0529545 -73.9598 -0.0117677 0z"/>
   <path id="_128781800" class="fil0" d="M2300.17 1245.38l-446.977 0c0,0 -91.7878,1.99462 -93.7824,-93.7824 -1.99462,-95.7829 -1.48273,-61.5449 -1.48273,-61.5449l-93.0175 0c-5.03656,-115.276 -85.9157,-232.2 -221.785,-233.17 -218.067,-1.55333 -245.491,198.003 -245.491,237.548l-152.733 0c8.8081,0 24.5474,-142.83 -25.6829,-211.641 91.6642,0 281.847,-2.4006 281.847,-2.4006l62.0038 -66.3049 -7.98436 -83.4975 103.526 0.294192c0,0 153.262,5.48962 235.277,140.794 70.1529,96.7538 154.968,76.7075 154.968,76.7075l119.854 -183.14 237.254 465.611 94.2061 0 0 14.5331 0 -0.00588383zm-484.957 -239.396l-62.2804 -31.6315 17.7927 83.0385 44.4877 -51.4071z"/>
   <path id="_111966488" class="fil0" d="M750.767 1307.68c157.275,0 284.795,-127.544 284.795,-284.83 0,-157.275 -127.526,-284.795 -284.795,-284.795 -157.293,0 -284.83,127.526 -284.83,284.795 0,157.293 127.544,284.83 284.83,284.83zm-0.0176515 -485.275c110.681,0 200.456,89.7755 200.456,200.456 0,110.681 -89.7755,200.456 -200.456,200.456 -110.681,0 -200.456,-89.7755 -200.456,-200.456 0,-110.681 89.7755,-200.456 200.456,-200.456z"/>
   <path id="_128833344" class="fil0" d="M1432.12 1307.68c117.453,0 212.689,-95.2475 212.689,-212.706 0,-117.453 -95.2298,-212.689 -212.689,-212.689 -117.453,0 -212.706,95.2298 -212.706,212.689 0,117.453 95.2475,212.706 212.706,212.706zm-0.0176515 -362.397c82.6737,0 149.714,67.0404 149.714,149.696 0,82.6737 -67.0404,149.714 -149.714,149.714 -82.6561,0 -149.696,-67.0404 -149.696,-149.714 0,-82.6561 67.0404,-149.696 149.696,-149.696z"/>
  </g>
 </g>
</svg>
