<?xml version="1.0" encoding="UTF-8" standalone="no"?>
<!-- Generator: Adobe Illustrator 16.0.0, SVG Export Plug-In . SVG Version: 6.00 Build 0)  -->

<svg
   xmlns:dc="http://purl.org/dc/elements/1.1/"
   xmlns:cc="http://creativecommons.org/ns#"
   xmlns:rdf="http://www.w3.org/1999/02/22-rdf-syntax-ns#"
   xmlns:svg="http://www.w3.org/2000/svg"
   xmlns="http://www.w3.org/2000/svg"
   xmlns:sodipodi="http://sodipodi.sourceforge.net/DTD/sodipodi-0.dtd"
   xmlns:inkscape="http://www.inkscape.org/namespaces/inkscape"
   class="tractor"
   version="1.1"
   id="Capa_1"
   x="0px"
   y="0px"
   width="464.842px"
   height="464.841px"
   viewBox="0 0 464.842 464.841"
   style="enable-background:new 0 0 464.842 464.841;"
   xml:space="preserve"
   inkscape:version="0.91 r13725"
   sodipodi:docname="tractor6.svg">
<defs>
  <style type="text/css">
   <![CDATA[
    .fil0 {fill:#2d3549}
   ]]>
  </style>
 </defs>
   <metadata
     id="metadata20"><rdf:RDF><cc:Work
         rdf:about=""><dc:format>image/svg+xml</dc:format><dc:type
           rdf:resource="http://purl.org/dc/dcmitype/StillImage" /><dc:title></dc:title></cc:Work></rdf:RDF></metadata><defs
     id="defs18" /><sodipodi:namedview
     pagecolor="#ffffff"
     bordercolor="#666666"
     borderopacity="1"
     objecttolerance="10"
     gridtolerance="10"
     guidetolerance="10"
     inkscape:pageopacity="0"
     inkscape:pageshadow="2"
     inkscape:window-width="687"
     inkscape:window-height="480"
     id="namedview16"
     showgrid="false"
     inkscape:zoom="0.50770048"
     inkscape:cx="232.42101"
     inkscape:cy="232.4205"
     inkscape:window-x="0"
     inkscape:window-y="0"
     inkscape:window-maximized="0"
     inkscape:current-layer="Capa_1" /><g
     id="g3"
     transform="matrix(-1,0,0,1,464.842,1.1335188e-6)"><g
       id="Layer_3_49_"><path class="fil0"
         d="m 277.888,124.306 -21.123,0 c -2.745,0 -4.97,-2.225 -4.97,-4.97 0,-2.745 2.225,-4.97 4.97,-4.97 l 21.123,0 c 2.745,0 4.97,2.225 4.97,4.97 0,2.745 -2.225,4.97 -4.97,4.97 z"
         id="path6"
         inkscape:connector-curvature="0" /><g
         id="g8"><path class="fil0"
           d="m 341.387,196.858 c -68.072,0 -123.454,49.15 -123.454,117.224 0,32.625 12.947,62.438 36.455,83.945 22.833,20.89 53.729,32.395 86.999,32.395 33.271,0 64.169,-11.505 87.001,-32.395 23.508,-21.509 36.454,-51.32 36.454,-83.945 0,-68.073 -55.382,-117.224 -123.455,-117.224 z m 0,169.819 c -29,0 -52.595,-23.594 -52.595,-52.595 0,-29.002 23.595,-52.596 52.595,-52.596 29.001,0 52.595,23.594 52.595,52.596 -0.001,29.001 -23.594,52.595 -52.595,52.595 z"
           id="path10"
           inkscape:connector-curvature="0" /><path class="fil0"
           d="m 87.4,260.648 c -48.193,0 -87.4,39.209 -87.4,87.401 0,23.101 9.167,44.209 25.812,59.438 16.166,14.79 38.038,22.935 61.589,22.935 23.552,0 45.425,-8.145 61.59,-22.935 16.645,-15.229 25.812,-36.339 25.812,-59.438 -0.001,-48.192 -39.209,-87.401 -87.403,-87.401 z m 0,124.465 c -20.435,0 -37.06,-16.627 -37.06,-37.063 0,-20.436 16.625,-37.062 37.06,-37.062 20.435,0 37.061,16.626 37.061,37.062 0,20.436 -16.626,37.063 -37.061,37.063 z"
           id="path12"
           inkscape:connector-curvature="0" /><path class="fil0"
           d="m 245.277,220.425 c 25.347,-23.58 59.479,-36.566 96.108,-36.566 24.679,0 48.221,5.901 68.708,16.959 0.103,0.055 0.204,0.088 0.306,0.132 1.882,1.353 4.231,2.068 6.717,1.847 5.501,-0.49 9.562,-5.347 9.072,-10.848 C 426.095,190.902 416.837,87.015 415.084,66.637 412.313,34.419 389.037,34.419 380.275,34.419 l -134.994,0 c -12.047,-0.024 -34.378,-0.013 -41.274,34.135 -3.881,19.216 -12.413,59.658 -19,90.541 -34.663,0 -67.15,0 -92.26,0 l 0,-50.582 c 0,-7.375 -5.979,-13.353 -13.353,-13.353 -7.374,0 -13.353,5.979 -13.353,13.353 l 0,50.582 c -12.812,0 -20.931,0 -22.52,0 -38.677,0 -50.627,83.074 -29.327,120.321 18.33,-19.54 44.365,-31.77 73.208,-31.77 50.5,0 92.405,37.479 99.376,86.083 l 19.604,0 c -0.957,-6.42 -1.448,-12.98 -1.448,-19.647 -0.001,-36.191 14.327,-69.453 40.343,-93.657 z M 395.159,68.352 c 1.099,12.771 5.136,58.241 8.026,90.744 -15.819,0 -46.297,0 -83.104,0 l 0,-104.677 60.196,0 c 9.733,0 13.729,0.535 14.882,13.933 z m -171.548,4.161 c 3.656,-18.1 10.463,-18.087 21.663,-18.094 l 58.807,0 0,104.676 c -30.991,0 -65.323,0 -98.629,0 6.945,-32.639 15.402,-72.932 18.159,-86.582 z"
           id="path14"
           inkscape:connector-curvature="0" /></g></g></g></svg>