<?xml version="1.0" encoding="UTF-8"?>
<!DOCTYPE svg PUBLIC "-//W3C//DTD SVG 1.1//EN" "http://www.w3.org/Graphics/SVG/1.1/DTD/svg11.dtd">
<!-- Creator: CorelDRAW -->
<svg xmlns="http://www.w3.org/2000/svg" xml:space="preserve" width="2400px" height="900px" style="shape-rendering:geometricPrecision; text-rendering:geometricPrecision; image-rendering:optimizeQuality; fill-rule:evenodd; clip-rule:evenodd"
viewBox="0 0 2400.01 877.615"
 xmlns:xlink="http://www.w3.org/1999/xlink">
 <defs>
  <style type="text/css">
   <![CDATA[
    .fil0 {fill:#fff}
   ]]>
  </style>
 </defs>
 <g id="Слой_x0020_1">
  <metadata id="CorelCorpID_0Corel-Layer"/>
  <g id="_114001776">
   <path id="_114001920" class="fil0" d="M2341.96 463.533l58.053 -126.354 -632.991 0 -161.609 -146.097 -907.369 0.00114287 -246.785 -179.19 -55.8439 -11.8927 197.287 190.941 -197.24 0c0,0 0,79.5823 297.223,69.1 141.349,-12.551 249.512,281.241 116.717,264.459 0,0 -469.55,-1.73944 -509.646,0.987436 -76.7149,4.9829 -145.721,145.392 -185.958,247.349 -2.82059,-2.96117 -20.5887,-5.64119 -99.6076,3.33717 -20.2596,9.96579 -12.8801,55.797 -12.8801,55.797 -9.58979,27.6402 75.6806,45.6438 75.6806,45.6438l1846.84 0c0,-0.329145 594.494,-346.11 418.124,-414.082zm-930.779 -81.4623l-125.743 0 -225.679 -120.431 374.079 0 -22.6573 120.431zm66.8428 8.74292l22.3282 -129.691 47.9467 0 152.865 129.691 -223.14 0zm420.663 53.7284c-4.23089,0.093715 -8.60235,0.188573 -12.7384,0.376003l-83.9069 -75.916 129.598 0.00114287 -32.9523 75.5389zm158.177 -1.4103c-38.1694,-0.23543 -79.5355,0.23543 -123.158,0.892578l31.5888 -73.1423 123.111 0.00114287 -31.542 72.2486zm132.559 2.2103c-29.4265,-0.987436 -62.1902,-1.73944 -97.7733,-2.06859l32.2471 -74.3171 98.9013 0 -33.3751 76.3857zm34.0803 1.64458l33.798 -78.0315 92.979 0.00114287 -39.6266 86.4452c-21.7636,-3.76117 -51.3787,-6.58176 -87.1504,-8.41492z"/>
  </g>
 </g>
</svg>
